<?xml version="1.0" encoding="UTF-8"?>
<svg version="1.1" xmlns="http://www.w3.org/2000/svg" width="128" height="128">
<path d="M0 0 C0.54140625 0.46535156 1.0828125 0.93070313 1.640625 1.41015625 C1.640625 2.07015625 1.640625 2.73015625 1.640625 3.41015625 C2.1975 3.61640625 2.754375 3.82265625 3.328125 4.03515625 C6.49902649 5.92055713 8.32791979 8.56374984 10.640625 11.41015625 C11.630625 12.07015625 12.620625 12.73015625 13.640625 13.41015625 C14.77653111 15.73360058 15.71253987 18.00204108 16.640625 20.41015625 C17.24970703 21.84294922 17.24970703 21.84294922 17.87109375 23.3046875 C25.3065934 41.33740952 25.02351082 58.48029069 17.640625 76.41015625 C16.92867681 77.78470968 16.18705834 79.14526735 15.390625 80.47265625 C13.43023101 83.32359885 13.43023101 83.32359885 13.203125 86.72265625 C12.9246875 88.05296875 12.9246875 88.05296875 12.640625 89.41015625 C10.453125 90.41015625 10.453125 90.41015625 7.640625 91.41015625 C4.01551828 94.31371895 1.48974255 96.74000971 0.640625 101.41015625 C-0.1225 101.32765625 -0.885625 101.24515625 -1.671875 101.16015625 C-2.55875 101.24265625 -3.445625 101.32515625 -4.359375 101.41015625 C-4.98005859 102.32861328 -4.98005859 102.32861328 -5.61328125 103.265625 C-11.95620925 111.05593254 -29.85965384 112.13592975 -39.359375 113.41015625 C-40.679375 113.41015625 -41.999375 113.41015625 -43.359375 113.41015625 C-43.359375 112.75015625 -43.359375 112.09015625 -43.359375 111.41015625 C-44.2875 111.47203125 -45.215625 111.53390625 -46.171875 111.59765625 C-51.46680614 111.59765625 -56.33236929 109.93058577 -61.359375 108.41015625 C-62.32617188 108.12398438 -63.29296875 107.8378125 -64.2890625 107.54296875 C-66.64871434 106.84108931 -69.0052124 106.13019297 -71.359375 105.41015625 C-71.359375 104.42015625 -71.359375 103.43015625 -71.359375 102.41015625 C-72.06449219 102.178125 -72.76960938 101.94609375 -73.49609375 101.70703125 C-87.12757883 95.53287975 -94.41595809 80.95441656 -99.66796875 67.7890625 C-101.37473803 61.91661906 -101.51710359 56.03290038 -101.484375 49.97265625 C-101.48824219 49.26044922 -101.49210937 48.54824219 -101.49609375 47.81445312 C-101.4837755 41.03325548 -101.17714905 34.56299108 -98.359375 28.28515625 C-96.81162015 24.65129704 -95.77630317 21.37097383 -95.359375 17.41015625 C-94.369375 17.08015625 -93.379375 16.75015625 -92.359375 16.41015625 C-90.70617383 14.55630411 -90.70617383 14.55630411 -89.109375 12.28515625 C-79.18373627 -0.78360142 -66.65910592 -8.83151118 -50.40234375 -12.203125 C-31.72342513 -14.5769542 -15.56763857 -10.49011407 0 0 Z " fill="#252525" transform="translate(103.359375,14.58984375)"/>
<path d="M0 0 C0.54140625 0.46535156 1.0828125 0.93070313 1.640625 1.41015625 C1.640625 2.07015625 1.640625 2.73015625 1.640625 3.41015625 C2.1975 3.61640625 2.754375 3.82265625 3.328125 4.03515625 C6.49902649 5.92055713 8.32791979 8.56374984 10.640625 11.41015625 C11.630625 12.07015625 12.620625 12.73015625 13.640625 13.41015625 C14.77653111 15.73360058 15.71253987 18.00204108 16.640625 20.41015625 C17.24970703 21.84294922 17.24970703 21.84294922 17.87109375 23.3046875 C25.3065934 41.33740952 25.02351082 58.48029069 17.640625 76.41015625 C16.92867681 77.78470968 16.18705834 79.14526735 15.390625 80.47265625 C13.43023101 83.32359885 13.43023101 83.32359885 13.203125 86.72265625 C12.9246875 88.05296875 12.9246875 88.05296875 12.640625 89.41015625 C10.453125 90.41015625 10.453125 90.41015625 7.640625 91.41015625 C4.01551828 94.31371895 1.48974255 96.74000971 0.640625 101.41015625 C-0.1225 101.32765625 -0.885625 101.24515625 -1.671875 101.16015625 C-2.55875 101.24265625 -3.445625 101.32515625 -4.359375 101.41015625 C-4.98005859 102.32861328 -4.98005859 102.32861328 -5.61328125 103.265625 C-11.95620925 111.05593254 -29.85965384 112.13592975 -39.359375 113.41015625 C-40.679375 113.41015625 -41.999375 113.41015625 -43.359375 113.41015625 C-43.359375 112.75015625 -43.359375 112.09015625 -43.359375 111.41015625 C-44.2875 111.47203125 -45.215625 111.53390625 -46.171875 111.59765625 C-51.46680614 111.59765625 -56.33236929 109.93058577 -61.359375 108.41015625 C-62.32617188 108.12398438 -63.29296875 107.8378125 -64.2890625 107.54296875 C-66.64871434 106.84108931 -69.0052124 106.13019297 -71.359375 105.41015625 C-71.359375 104.42015625 -71.359375 103.43015625 -71.359375 102.41015625 C-72.06449219 102.178125 -72.76960938 101.94609375 -73.49609375 101.70703125 C-87.12757883 95.53287975 -94.41595809 80.95441656 -99.66796875 67.7890625 C-101.37473803 61.91661906 -101.51710359 56.03290038 -101.484375 49.97265625 C-101.48824219 49.26044922 -101.49210937 48.54824219 -101.49609375 47.81445312 C-101.4837755 41.03325548 -101.17714905 34.56299108 -98.359375 28.28515625 C-96.81162015 24.65129704 -95.77630317 21.37097383 -95.359375 17.41015625 C-94.369375 17.08015625 -93.379375 16.75015625 -92.359375 16.41015625 C-90.70617383 14.55630411 -90.70617383 14.55630411 -89.109375 12.28515625 C-79.18373627 -0.78360142 -66.65910592 -8.83151118 -50.40234375 -12.203125 C-31.72342513 -14.5769542 -15.56763857 -10.49011407 0 0 Z M-80.359375 16.41015625 C-89.67236878 29.15753577 -93.23684352 42.84676273 -90.890625 58.546875 C-87.77068497 72.75374479 -80.35398423 84.54004061 -68.8125 93.35546875 C-57.84954061 100.30333155 -44.4083226 104.58823429 -31.41992188 102.02783203 C-16.07842811 98.30406014 -3.03517121 90.58105063 5.43334961 77.04345703 C13.10851643 64.3031695 14.94342609 49.5877975 11.9453125 35.03515625 C11.03352208 32.3380955 9.9689435 29.92609907 8.640625 27.41015625 C8.00447266 26.14171875 8.00447266 26.14171875 7.35546875 24.84765625 C1.13346066 13.478193 -8.84383616 4.39589497 -21.125 0.08984375 C-43.34597373 -6.40505887 -64.7333993 -1.07666158 -80.359375 16.41015625 Z " fill="#D8D8D8" transform="translate(103.359375,14.58984375)"/>
<path d="M0 0 C2.31279611 1.15639806 4.17409828 2.17409828 6 4 C6.43102537 7.38047038 6.49353391 10.62573009 6 14 C3.625 16.625 3.625 16.625 1 18 C0.34 18 -0.32 18 -1 18 C-0.505 25.92 -0.505 25.92 0 34 C1.60875 33.01 3.2175 32.02 4.875 31 C9.75 28 9.75 28 12 28 C11.9175 26.948125 11.835 25.89625 11.75 24.8125 C12.03730349 20.43112175 12.94845581 19.05154419 16 16 C18.90295805 14.54852097 20.77261779 14.62760975 24 15 C27.55956846 17.04345597 29.50243928 18.16565949 30.5859375 22.16015625 C30.81550686 25.43425259 30.68501126 27.90298922 28.921875 30.7265625 C26.872589 32.74206906 24.89760867 33.95100771 21.99609375 34.109375 C19.00629579 33.76898055 16.34005724 33.11902003 13.5 32.125 C9.81822438 31.94091122 7.71826205 33.80190789 4.76953125 35.87109375 C3 37 3 37 1 37 C1 37.66 1 38.32 1 39 C1.721875 39.268125 2.44375 39.53625 3.1875 39.8125 C6 41 6 41 8.5 42.6875 C10.93881525 44.25653339 10.93881525 44.25653339 13.75 43.75 C15.9440983 43.2049729 15.9440983 43.2049729 17 42 C21.08538398 41.59947216 23.60147453 41.82287757 27.375 43.5 C30.41526363 46.39548917 31.00951839 47.94078574 31.24609375 52.03125 C30.84852099 55.21183212 29.27326782 56.85663319 27 59 C23.80766515 60.59616743 20.46538503 60.51466114 17 60 C14.56880377 58.12984906 13.35930827 56.71861655 12 54 C11.960008 52.00039988 11.95653201 49.99952758 12 48 C11.43796875 47.72414062 10.8759375 47.44828125 10.296875 47.1640625 C6.46806396 45.22361065 2.74678981 43.0937943 -1 41 C-1 46.61 -1 52.22 -1 58 C0.65 58.66 2.3 59.32 4 60 C6.35858628 62.35858628 6.36946499 63.07631948 6.5 66.3125 C6.44053025 68.94616023 6.33415753 70.49761143 4.8671875 72.703125 C2.38764911 74.96197149 0.21242298 75.96098353 -3.0625 76.5625 C-6.67781108 75.87020639 -8.38108416 74.54408967 -11 72 C-12.55024464 68.89951072 -12.28992015 66.42105782 -12 63 C-10.25 60.0625 -10.25 60.0625 -8 58 C-6.68 58 -5.36 58 -4 58 C-4 52.39 -4 46.78 -4 41 C-5.93875 42.155 -7.8775 43.31 -9.875 44.5 C-15.75 48 -15.75 48 -18 48 C-17.9175 48.886875 -17.835 49.77375 -17.75 50.6875 C-18.05469186 54.72466718 -19.22040005 56.13864711 -22 59 C-25.24669341 60.62334671 -28.50286478 60.69541503 -32 60 C-35.56352884 56.95615245 -36.81458415 55.05687034 -37.625 50.4375 C-37 47 -37 47 -35.0625 44.0625 C-31.44163543 41.62395855 -29.34012783 41.47317232 -25.0859375 41.53125 C-22.56976916 42.09668109 -21.6296563 43.04856443 -20 45 C-17.96961148 43.98935818 -15.94441636 42.97126431 -13.9296875 41.9296875 C-13.25164063 41.58164063 -12.57359375 41.23359375 -11.875 40.875 C-11.19179688 40.52179688 -10.50859375 40.16859375 -9.8046875 39.8046875 C-8 39 -8 39 -6 39 C-6 38.34 -6 37.68 -6 37 C-6.86625 36.7525 -7.7325 36.505 -8.625 36.25 C-12 35 -12 35 -15.125 32.8125 C-17.74339536 30.77293487 -17.74339536 30.77293487 -20.1875 31.125 C-22.26205911 32.07518163 -22.26205911 32.07518163 -25 34 C-27.875 34.4375 -27.875 34.4375 -31 34 C-33.8125 31.5625 -33.8125 31.5625 -36 29 C-36.33 28.67 -36.66 28.34 -37 28 C-37.13036207 23.4093929 -36.83782649 19.98145389 -33.8125 16.4375 C-30.41608557 14.70155485 -28.76208644 14.30900453 -25 15 C-21.6875 17.0625 -21.6875 17.0625 -19 20 C-18.92523438 21.1240625 -18.85046875 22.248125 -18.7734375 23.40625 C-18.34555134 27.27607279 -18.34555134 27.27607279 -14.83984375 29.43359375 C-13.55483817 30.13142952 -12.25041933 30.7937167 -10.9375 31.4375 C-8.648125 32.613125 -6.35875 33.78875 -4 35 C-4 29.39 -4 23.78 -4 18 C-5.65 17.67 -7.3 17.34 -9 17 C-11.41858515 14.16441741 -11.97202636 12.19581545 -12.5 8.5 C-12 5 -12 5 -9.9375 2.0625 C-6.25315134 -0.5243831 -4.42058395 -0.63151199 0 0 Z " fill="#DBDBDB" transform="translate(67,26)"/>
<path d="M0 0 C0.8125 2.375 0.8125 2.375 1 5 C-1.27579583 7.9928274 -4.18891132 9.12074012 -7.5625 10.625 C-20.55759679 17.05200806 -27.80506971 26.68922857 -33.16015625 39.8515625 C-37.4535185 53.39063045 -35.20473923 67.36803858 -29.4375 80.0625 C-22.25120058 93.60113324 -11.7234426 101.2740681 2.45703125 106.23828125 C15.0080879 109.99781435 26.10709493 107.62429496 38 103 C39.67240964 102.00963452 41.34064612 101.01208818 43 100 C45.8125 99.8125 45.8125 99.8125 48 100 C48 102.64 48 105.28 48 108 C44.535 108.495 44.535 108.495 41 109 C41 109.99 41 110.98 41 112 C39.31593731 112.65474408 37.62753664 113.29833406 35.9375 113.9375 C34.52791016 114.47697266 34.52791016 114.47697266 33.08984375 115.02734375 C18.01935554 119.77140388 1.27873465 117.35048559 -12.6875 110.4375 C-22.40593323 104.6875477 -31.70165286 96.04799814 -37 86 C-37.67578125 83.2109375 -37.67578125 83.2109375 -38 81 C-38.66 81 -39.32 81 -40 81 C-46.24205144 68.54376342 -46.46907886 50.36430536 -42.4375 37.1875 C-41.3203125 34.55078125 -41.3203125 34.55078125 -40 32 C-39.50242187 31.00355469 -39.00484375 30.00710937 -38.4921875 28.98046875 C-33.08834618 18.98964585 -26.41361958 11.22926114 -16.9375 5 C-16.37216553 4.62593018 -15.80683105 4.25186035 -15.22436523 3.86645508 C-11.16311141 1.3441658 -4.68023659 -2.3401183 0 0 Z " fill="#DBDBDB" transform="translate(48,8)"/>
<path d="M0 0 C0.54140625 0.46535156 1.0828125 0.93070313 1.640625 1.41015625 C1.640625 2.07015625 1.640625 2.73015625 1.640625 3.41015625 C2.1975 3.61640625 2.754375 3.82265625 3.328125 4.03515625 C6.49902649 5.92055713 8.32791979 8.56374984 10.640625 11.41015625 C11.630625 12.07015625 12.620625 12.73015625 13.640625 13.41015625 C14.77653111 15.73360058 15.71253987 18.00204108 16.640625 20.41015625 C17.24970703 21.84294922 17.24970703 21.84294922 17.87109375 23.3046875 C25.3065934 41.33740952 25.02351082 58.48029069 17.640625 76.41015625 C16.92867681 77.78470968 16.18705834 79.14526735 15.390625 80.47265625 C13.43023101 83.32359885 13.43023101 83.32359885 13.203125 86.72265625 C12.9246875 88.05296875 12.9246875 88.05296875 12.640625 89.41015625 C10.453125 90.41015625 10.453125 90.41015625 7.640625 91.41015625 C4.01551828 94.31371895 1.48974255 96.74000971 0.640625 101.41015625 C-0.1225 101.32765625 -0.885625 101.24515625 -1.671875 101.16015625 C-2.55875 101.24265625 -3.445625 101.32515625 -4.359375 101.41015625 C-4.98005859 102.32861328 -4.98005859 102.32861328 -5.61328125 103.265625 C-11.95620925 111.05593254 -29.85965384 112.13592975 -39.359375 113.41015625 C-40.679375 113.41015625 -41.999375 113.41015625 -43.359375 113.41015625 C-43.359375 112.75015625 -43.359375 112.09015625 -43.359375 111.41015625 C-44.2875 111.47203125 -45.215625 111.53390625 -46.171875 111.59765625 C-51.46680614 111.59765625 -56.33236929 109.93058577 -61.359375 108.41015625 C-62.32617188 108.12398438 -63.29296875 107.8378125 -64.2890625 107.54296875 C-66.64871434 106.84108931 -69.0052124 106.13019297 -71.359375 105.41015625 C-71.359375 104.42015625 -71.359375 103.43015625 -71.359375 102.41015625 C-72.06449219 102.178125 -72.76960938 101.94609375 -73.49609375 101.70703125 C-87.12757883 95.53287975 -94.41595809 80.95441656 -99.66796875 67.7890625 C-101.37473803 61.91661906 -101.51710359 56.03290038 -101.484375 49.97265625 C-101.48824219 49.26044922 -101.49210937 48.54824219 -101.49609375 47.81445312 C-101.4837755 41.03325548 -101.17714905 34.56299108 -98.359375 28.28515625 C-96.81162015 24.65129704 -95.77630317 21.37097383 -95.359375 17.41015625 C-94.369375 17.08015625 -93.379375 16.75015625 -92.359375 16.41015625 C-90.70617383 14.55630411 -90.70617383 14.55630411 -89.109375 12.28515625 C-79.18373627 -0.78360142 -66.65910592 -8.83151118 -50.40234375 -12.203125 C-31.72342513 -14.5769542 -15.56763857 -10.49011407 0 0 Z M-86.359375 10.41015625 C-98.50187221 27.02190873 -100.75907587 42.27241712 -99.359375 62.41015625 C-98.6409864 66.6524486 -97.28888885 70.55974245 -95.359375 74.41015625 C-94.699375 74.41015625 -94.039375 74.41015625 -93.359375 74.41015625 C-93.26914063 75.12429687 -93.17890625 75.8384375 -93.0859375 76.57421875 C-90.21286527 87.78846843 -78.64224059 97.07367122 -69.19140625 102.83984375 C-54.40428245 111.03904895 -37.75402529 112.8375168 -21.359375 108.41015625 C-18.92414293 107.53586102 -16.68841915 106.54880006 -14.359375 105.41015625 C-14.359375 104.42015625 -14.359375 103.43015625 -14.359375 102.41015625 C-10.894375 101.91515625 -10.894375 101.91515625 -7.359375 101.41015625 C-6.864375 99.43015625 -6.864375 99.43015625 -6.359375 97.41015625 C-5.81925781 97.68214844 -5.27914062 97.95414062 -4.72265625 98.234375 C-2.09556691 98.69219895 -2.09556691 98.69219895 0.41015625 96.3046875 C1.4416569 95.29459217 2.45509577 94.26583592 3.453125 93.22265625 C3.98357422 92.67746338 4.51402344 92.13227051 5.06054688 91.57055664 C17.11398684 78.76469651 22.21507337 63.28175125 21.91796875 45.97265625 C21.24802709 30.1873641 14.19683658 16.06498333 2.640625 5.41015625 C1.980625 5.41015625 1.320625 5.41015625 0.640625 5.41015625 C0.145625 3.92515625 0.145625 3.92515625 -0.359375 2.41015625 C-27.0456122 -18.71853437 -63.80842591 -14.46170466 -86.359375 10.41015625 Z " fill="#161616" transform="translate(103.359375,14.58984375)"/>
<path d="M0 0 C0.33 0 0.66 0 1 0 C1.00257812 0.96421875 1.00515625 1.9284375 1.0078125 2.921875 C0.87275302 9.73852646 0.87275302 9.73852646 3.3671875 15.78515625 C5.15619768 16.98053885 5.15619768 16.98053885 8 18 C9.55929968 19.55929968 9.31941003 21.08859568 9.4375 23.25 C9.40785223 25.90559283 9.34538735 27.47773609 7.87109375 29.70703125 C5.38632846 31.95824158 3.21208809 32.96104504 -0.0625 33.5625 C-3.67781108 32.87020639 -5.38108416 31.54408967 -8 29 C-9.55024464 25.89951072 -9.28992015 23.42105782 -9 20 C-7.3125 17.0625 -7.3125 17.0625 -5 15 C-3.35 15 -1.7 15 0 15 C0 10.05 0 5.1 0 0 Z " fill="#E1E1E1" transform="translate(64,69)"/>
<path d="M0 0 C3.55956846 2.04345597 5.50243928 3.16565949 6.5859375 7.16015625 C6.81550686 10.43425259 6.68501126 12.90298922 4.921875 15.7265625 C2.79510771 17.81827319 0.8218438 18.97201607 -2.1796875 19.07421875 C-4.375 18.8125 -4.375 18.8125 -8 18 C-8.33 17.01 -8.66 16.02 -9 15 C-11.01508358 14.26676204 -11.01508358 14.26676204 -13 14 C-11.84785047 4.98915888 -11.84785047 4.98915888 -8.75 1.375 C-5.38843645 -0.30578177 -3.71010752 -0.68144832 0 0 Z " fill="#E3E3E3" transform="translate(91,41)"/>
<path d="M0 0 C4.24878262 2.485137 4.24878262 2.485137 6 5 C6.77002076 8.00962361 6.98649189 10.8998894 7 14 C3.73880346 16.70158294 1.08369087 18.78326183 -3.125 19.625 C-6.97177734 18.78874406 -8.48504481 16.94609037 -11 14 C-11.33 13.67 -11.66 13.34 -12 13 C-12.13036207 8.4093929 -11.83782649 4.98145389 -8.8125 1.4375 C-5.41608557 -0.29844515 -3.76208644 -0.69099547 0 0 Z " fill="#DDDDDD" transform="translate(42,41)"/>
<path d="M0 0 C0.66 1.65 1.32 3.3 2 5 C2.66 5 3.32 5 4 5 C4.60150376 12.09774436 4.60150376 12.09774436 2 16 C-1.31160095 18.20773397 -3.15003259 18.81363414 -7.0625 18.546875 C-10.78819693 17.495267 -12.12606223 15.22083055 -14 12 C-14.77278699 7.59511418 -14.52941113 5.80265559 -12.0625 2.0625 C-7.95351764 -0.70477383 -4.80815498 -0.47138774 0 0 Z " fill="#E4E4E4" transform="translate(44,68)"/>
<path d="M0 0 C4.34159318 0.67369549 6.43505109 1.52445342 9.625 4.5625 C10.69782851 7.2959301 10.98917469 9.64910248 10.625 12.5625 C8.86035939 15.42243478 7.62934303 17.06032849 4.625 18.5625 C-2.39099016 19.12830566 -2.39099016 19.12830566 -5.875 17.125 C-8.11817466 13.29290996 -8.12215761 9.89139256 -7.375 5.5625 C-5.35620419 1.60566022 -4.39830799 0.73305133 0 0 Z " fill="#DEDEDE" transform="translate(87.375,67.4375)"/>
<path d="M0 0 C0.33 0 0.66 0 1 0 C0.66394852 4.11663059 0.17822728 7.02682674 -2 10.5625 C-4.19326027 13.82421225 -4.19326027 13.82421225 -4.4375 17.3125 C-4.7159375 18.6428125 -4.7159375 18.6428125 -5 20 C-7.1875 21 -7.1875 21 -10 22 C-13.62510672 24.9035627 -16.15088245 27.32985346 -17 32 C-17.763125 31.9175 -18.52625 31.835 -19.3125 31.75 C-20.6428125 31.87375 -20.6428125 31.87375 -22 32 C-22.680625 32.928125 -22.680625 32.928125 -23.375 33.875 C-25.76900812 37.00562601 -28.21213141 37.22958605 -32 38 C-35.4375 38.125 -35.4375 38.125 -38 38 C-35 36 -35 36 -32 36 C-32 35.01 -32 34.02 -32 33 C-30.865625 32.731875 -29.73125 32.46375 -28.5625 32.1875 C-27.386875 31.795625 -26.21125 31.40375 -25 31 C-24.67 30.01 -24.34 29.02 -24 28 C-23.27554688 27.92394531 -22.55109375 27.84789063 -21.8046875 27.76953125 C-14.19201671 25.68081795 -8.82140581 17.14711484 -5 10.6875 C-3.06318596 7.20030356 -1.41320165 3.73003704 0 0 Z " fill="#181818" transform="translate(121,84)"/>
<path d="M0 0 C4.21548466 1.56129062 6.22687017 4.58691713 9 8 C9.99 8.66 10.98 9.32 12 10 C13.13590611 12.32344433 14.07191487 14.59188483 15 17 C15.60908203 18.43279297 15.60908203 18.43279297 16.23046875 19.89453125 C22.71505764 35.62108553 24.04382719 51.845116 18 68 C16.98033749 64.7698803 17.04697997 63.81521211 17.9375 60.3125 C21.61857986 44.85196457 18.75934785 28.28753385 10.79296875 14.6484375 C8.04113556 10.58363814 4.95291141 6.83953045 1.7578125 3.1171875 C0 1 0 1 0 0 Z " fill="#141414" transform="translate(105,18)"/>
<path d="M0 0 C3.89490828 0.63256722 7.15198989 1.83362512 10.75 3.4375 C23.46627791 8.78359011 36.08809384 9.47556774 49.6328125 6.4375 C52.13734423 5.97461625 54.45881167 5.927653 57 6 C50.92457109 9.40224019 44.37412634 10.36469038 37.5625 11.125 C36.83095703 11.21136719 36.09941406 11.29773438 35.34570312 11.38671875 C33.56439906 11.59628393 31.78227719 11.79887868 30 12 C30 11.34 30 10.68 30 10 C29.071875 10.061875 28.14375 10.12375 27.1875 10.1875 C21.89256886 10.1875 17.02700571 8.52042952 12 7 C11.03320312 6.71382813 10.06640625 6.42765625 9.0703125 6.1328125 C6.71066066 5.43093306 4.3541626 4.72003672 2 4 C2 3.01 2 2.02 2 1 C1.34 0.67 0.68 0.34 0 0 Z " fill="#121212" transform="translate(30,116)"/>
<path d="M0 0 C16.85554755 -0.6742219 31.55905987 1.73867178 45 13 C45.75 15.1875 45.75 15.1875 46 17 C44 17 44 17 42.15234375 15.18359375 C41.44207031 14.46300781 40.73179688 13.74242187 40 13 C27.51640918 4.01089501 15.03372247 1.19804904 0 1 C0 0.67 0 0.34 0 0 Z " fill="#262626" transform="translate(60,3)"/>
<path d="M0 0 C0 5.94 0 11.88 0 18 C-0.33 18 -0.66 18 -1 18 C-1 12.39 -1 6.78 -1 1 C-2.93875 2.155 -4.8775 3.31 -6.875 4.5 C-12.75 8 -12.75 8 -15 8 C-15 9.98 -15 11.96 -15 14 C-15.33 14 -15.66 14 -16 14 C-16 11.69 -16 9.38 -16 7 C-16.66 7 -17.32 7 -18 7 C-16.71902742 4.43805485 -15.56435059 4.18813382 -13 3 C-12.35160156 2.63519531 -11.70320313 2.27039063 -11.03515625 1.89453125 C-10.05869141 1.35892578 -10.05869141 1.35892578 -9.0625 0.8125 C-8.41410156 0.44769531 -7.76570313 0.08289063 -7.09765625 -0.29296875 C-5 -1 -5 -1 0 0 Z " fill="#BEBEBE" transform="translate(64,66)"/>
<path d="M0 0 C1.18717597 1.78076396 2.34723913 3.58092168 3.4453125 5.41796875 C8.62795357 13.96330019 14.38011519 20.82806911 23 26 C22.01 26.33 21.02 26.66 20 27 C11.42717356 21.68809377 4.36668516 14.06926917 0 5 C-0.25 2.0625 -0.25 2.0625 0 0 Z " fill="#1E1E1E" transform="translate(9,89)"/>
<path d="M0 0 C0.33 0 0.66 0 1 0 C0.66394852 4.11663059 0.17822728 7.02682674 -2 10.5625 C-3.94218083 13.90062331 -4.62942065 16.20156165 -5 20 C-6.65 20.33 -8.3 20.66 -10 21 C-9.33156881 17.18170128 -7.5583279 14.35291897 -5.5625 11.0625 C-3.36970089 7.44140585 -1.45812687 3.978708 0 0 Z " fill="#202020" transform="translate(121,84)"/>
<path d="M0 0 C0.33 0 0.66 0 1 0 C1 5.61 1 11.22 1 17 C1.66 17 2.32 17 3 17 C2.67 18.32 2.34 19.64 2 21 C1.34 21 0.68 21 0 21 C0.33 24.63 0.66 28.26 1 32 C-1.27184318 28.59223523 -1.24679414 27.37670738 -1.23046875 23.37890625 C-1.22853516 22.27869141 -1.22660156 21.17847656 -1.22460938 20.04492188 C-1.21236328 18.89572266 -1.20011719 17.74652344 -1.1875 16.5625 C-1.18685547 15.41716797 -1.18621094 14.27183594 -1.18554688 13.09179688 C-1.13666195 3.80909309 -1.13666195 3.80909309 0 0 Z " fill="#AFAFAF" transform="translate(5,48)"/>
<path d="M0 0 C0.70511719 0.39960937 1.41023438 0.79921875 2.13671875 1.2109375 C1.27046875 1.62085938 1.27046875 1.62085938 0.38671875 2.0390625 C-2.54735476 3.56722578 -5.16989563 5.46798366 -7.86328125 7.3828125 C-9.86328125 8.2109375 -9.86328125 8.2109375 -12.11328125 7.3515625 C-12.69078125 6.97515625 -13.26828125 6.59875 -13.86328125 6.2109375 C-12.14973865 4.9805479 -10.41672939 3.77723359 -8.67578125 2.5859375 C-7.71285156 1.91304687 -6.74992187 1.24015625 -5.7578125 0.546875 C-2.86328125 -0.7890625 -2.86328125 -0.7890625 0 0 Z " fill="#BFBFBF" transform="translate(79.86328125,54.7890625)"/>
<path d="M0 0 C4.30764815 1.56641751 8.06171464 3.68336156 12 6 C11.01 7.485 11.01 7.485 10 9 C6.04 6.69 2.08 4.38 -2 2 C-1.34 1.34 -0.68 0.68 0 0 Z " fill="#C5C5C5" transform="translate(49,54)"/>
<path d="M0 0 C0.66 0.33 1.32 0.66 2 1 C-1.96 4.96 -5.92 8.92 -10 13 C-10.66 12.67 -11.32 12.34 -12 12 C-8.27653164 7.57905197 -4.70478962 3.42166518 0 0 Z " fill="#464646" transform="translate(34,21)"/>
<path d="M0 0 C0.33 0.66 0.66 1.32 1 2 C-1.64 2 -4.28 2 -7 2 C-8.96301592 5.50538557 -9.95902388 9.13351728 -11 13 C-11.33 13 -11.66 13 -12 13 C-12.32470459 8.86001651 -12.4304413 6.66000999 -10.125 3.125 C-6.7407585 -0.2592415 -4.67814825 -0.10169888 0 0 Z " fill="#B3B3B3" transform="translate(91,41)"/>
<path d="M0 0 C4.21548466 1.56129062 6.22687017 4.58691713 9 8 C9.99 8.66 10.98 9.32 12 10 C12 10.99 12 11.98 12 13 C8.14561649 11.48081731 6.26394504 9.17304038 3.75 5.9375 C3.04359375 5.03902344 2.3371875 4.14054687 1.609375 3.21484375 C0 1 0 1 0 0 Z " fill="#121212" transform="translate(105,18)"/>
<path d="M0 0 C0 0.33 0 0.66 0 1 C-2.64 1 -5.28 1 -8 1 C-8.433125 1.928125 -8.433125 1.928125 -8.875 2.875 C-10 5 -10 5 -12 7 C-12.64767793 9.57061311 -12.64767793 9.57061311 -13 12 C-13.33 12 -13.66 12 -14 12 C-14.41271158 7.79034186 -14.42484735 5.64412341 -12.0625 2.0625 C-7.95351764 -0.70477383 -4.80815498 -0.47138774 0 0 Z " fill="#BABABA" transform="translate(44,68)"/>
<path d="M0 0 C0.99 0 1.98 0 3 0 C2.39363767 5.76044212 0.24341721 10.72014369 -2 16 C-3.3805087 12.23331402 -2.59568159 9.55210827 -1.5625 5.75 C-1.27503906 4.67234375 -0.98757812 3.5946875 -0.69140625 2.484375 C-0.46324219 1.66453125 -0.23507812 0.8446875 0 0 Z " fill="#0E0E0E" transform="translate(8,32)"/>
<path d="M0 0 C0 0.33 0 0.66 0 1 C-1.98 1 -3.96 1 -6 1 C-6.433125 1.928125 -6.433125 1.928125 -6.875 2.875 C-8 5 -8 5 -10 7 C-10.64767793 9.57061311 -10.64767793 9.57061311 -11 12 C-11.33 12 -11.66 12 -12 12 C-12.4206933 7.70892835 -12.45543836 5.64865463 -9.9375 2.0625 C-6.35134537 -0.45543836 -4.29107165 -0.4206933 0 0 Z " fill="#BFBFBF" transform="translate(67,26)"/>
<path d="M0 0 C0.66 0 1.32 0 2 0 C0.34908222 4.29238623 -2.73754566 6.8793915 -6 10 C-6.66 9.67 -7.32 9.34 -8 9 C-6.85459775 7.68712379 -5.70866567 6.37470979 -4.5625 5.0625 C-3.92441406 4.33160156 -3.28632813 3.60070312 -2.62890625 2.84765625 C-1.77458541 1.87860647 -0.91348825 0.91348825 0 0 Z " fill="#BABABA" transform="translate(24,18)"/>
<path d="M0 0 C0.33 0.99 0.66 1.98 1 3 C-1.64 5.31 -4.28 7.62 -7 10 C-7.66 9.67 -8.32 9.34 -9 9 C-6.03 6.03 -3.06 3.06 0 0 Z " fill="#333333" transform="translate(110,103)"/>
<path d="M0 0 C2.31 0.33 4.62 0.66 7 1 C6.34 3.97 5.68 6.94 5 10 C4.67 10 4.34 10 4 10 C4 8.02 4 6.04 4 4 C2.68 3.34 1.36 2.68 0 2 C0 1.34 0 0.68 0 0 Z " fill="#C0C0C0" transform="translate(75,70)"/>
<path d="M0 0 C3.79039882 0.52644428 6.21815268 1.31750437 9 4 C9.75 6.1875 9.75 6.1875 10 8 C8 8 8 8 6.125 6.25 C5.42375 5.5075 4.7225 4.765 4 4 C3.2575 3.2575 2.515 2.515 1.75 1.75 C1.1725 1.1725 0.595 0.595 0 0 Z " fill="#282828" transform="translate(96,12)"/>
<path d="M0 0 C1.65 0 3.3 0 5 0 C0.81538462 4.92307692 0.81538462 4.92307692 -3.3125 5.3125 C-4.199375 5.209375 -5.08625 5.10625 -6 5 C-3 3 -3 3 0 3 C0 2.01 0 1.02 0 0 Z " fill="#363636" transform="translate(89,117)"/>
<path d="M0 0 C0.33 0 0.66 0 1 0 C1 1.65 1 3.3 1 5 C1.66 5.33 2.32 5.66 3 6 C0.69 6.33 -1.62 6.66 -4 7 C-3.67 6.01 -3.34 5.02 -3 4 C-2.01 4 -1.02 4 0 4 C0 2.68 0 1.36 0 0 Z " fill="#BEBEBE" transform="translate(93,110)"/>
<path d="M0 0 C0.66 0.33 1.32 0.66 2 1 C1.0409375 2.051875 1.0409375 2.051875 0.0625 3.125 C-2.16386102 6.22841233 -2.65080943 8.24620139 -3 12 C-3.33 12 -3.66 12 -4 12 C-4.33292585 7.75519536 -4.43885872 5.64457375 -2 2.0625 C-1.34 1.381875 -0.68 0.70125 0 0 Z " fill="#B4B4B4" transform="translate(59,84)"/>
<path d="M0 0 C0.99 0.33 1.98 0.66 3 1 C-1.455 3.97 -1.455 3.97 -6 7 C-6 6.01 -6 5.02 -6 4 C-3.1875 1.75 -3.1875 1.75 0 0 Z " fill="#1E1E1E" transform="translate(31,11)"/>
<path d="M0 0 C0.66 0 1.32 0 2 0 C2 0.99 2 1.98 2 3 C2.66 3.33 3.32 3.66 4 4 C1.69 4.66 -0.62 5.32 -3 6 C-2.01 4.02 -1.02 2.04 0 0 Z " fill="#B6B6B6" transform="translate(79,118)"/>
<path d="M0 0 C1.98 1.65 3.96 3.3 6 5 C3.50907189 6.24546405 2.58919267 5.7767578 0 5 C0 3.35 0 1.7 0 0 Z " fill="#C0C0C0" transform="translate(105,20)"/>
</svg>
